<svg xmlns="http://www.w3.org/2000/svg">
  <symbol id="graph-upload"><path d="M14 2H6a2 2 0 0 0-2 2v16a2 2 0 0 0 2 2h12a2 2 0 0 0 2-2V8z"></path><polyline points="14 2 14 8 20 8"></polyline><line x1="12" y1="18" x2="12" y2="12"></line><line x1="9" y1="15" x2="15" y2="15"></line></symbol>
  <symbol id="graph-undo"><polyline points="1 4 1 10 7 10"></polyline><path d="M3.51 15a9 9 0 1 0 2.13-9.36L1 10"></path></symbol>
  <symbol id="graph-up"><line x1="12" y1="19" x2="12" y2="5"></line><polyline points="5 12 12 5 19 12"></polyline></symbol>
  <symbol id="graph-down"><line x1="12" y1="5" x2="12" y2="19"></line><polyline points="19 12 12 19 5 12"></polyline></symbol>
  <symbol id="graph-s"><path d="M15.316652 5.591254C13.019008 4.2587239 8.8724753 4.6033056 8.3055084 7.2811193 7.0362466 13.275908 17.303547 10.778621 15.532379 16.809084c-0.94456 3.216034-4.524531 2.885362-7.1909159 1.689865"/></symbol>

  <symbol id="node-parents"><g transform="rotate(-90,12,12)"><circle r="3" cy="5" cx="18"/><circle r="3" cy="12" cx="6"/><circle r="3" cy="19" cx="18"/><line y2="17.49" x2="15.42" y1="13.51" x1="8.5900002"/><line y2="10.49" x2="8.5900002" y1="6.5100002" x1="15.41"/></g></symbol>
  <symbol id="node-children"><g transform="rotate(90,12,12)"><circle r="3" cy="5" cx="18"/><circle r="3" cy="12" cx="6"/><circle r="3" cy="19" cx="18" /><line y2="17.49" x2="15.42" y1="13.51" x1="8.5900002"/><line y2="10.49" x2="8.5900002" y1="6.5100002" x1="15.41"/></g></symbol>
  <symbol id="node-consequences"><polygon points="15 12 5 20 5 4 " transform="rotate(90,10.898306,13.305082)"/><circle cx="12.20339" cy="21.05084" r="1" /><circle r="1" cy="3.0508404" cx="18.20339"/><circle cx="6.2033901" cy="3.0508404" r="1"/></symbol>

  <symbol id="history-back"><line x1="8" y1="12" x2="16" y2="12"></line></symbol>
  <symbol id="history-forward"><line x1="12" y1="8" x2="12" y2="16"></line><line x1="8" y1="12" x2="16" y2="12"></line></symbol>

  <symbol id="nav-back"><circle cx="12" cy="12" r="10"></circle><polyline points="12 8 8 12 12 16"></polyline><line x1="16" y1="12" x2="8" y2="12"></line></symbol>

  <symbol id="alert-triangle"><path d="M10.29 3.86L1.82 18a2 2 0 0 0 1.71 3h16.94a2 2 0 0 0 1.71-3L13.71 3.86a2 2 0 0 0-3.42 0z"></path><line x1="12" y1="9" x2="12" y2="13"></line><line x1="12" y1="17" x2="12" y2="17"></line></symbol>
</svg>
